<svg xmlns="http://www.w3.org/2000/svg" version="1.1" viewbox="0 0 68 40" width="25" style="">
    <path d="m68.00000370227814,19.99480707120893 c-0.028000000000000344,-0.7150000000000006 -0.3223000000000065,-1.5413999999999999 -0.8125,-2.0626 l-16.00001,-17.00085 c-1.0842,-0.9742999999999995 -3.1632000000000002,-1.3765 -4.375,-0.25 c-1.1936,1.1095 -1.1581000000000001,3.2613 0.03100000000000052,4.3752 l11.25,11.9381 l-55.09349,0 c-1.6568,0 -3,1.34325 -3,3.00015 c0,1.6569000000000007 1.3432,3.0001 3,3.0001 l55.09349,0 l-11.25,11.9381 c-1.0237,1.0255 -1.2129,3.253 -0.03100000000000052,4.3752 c1.1816,1.1221 3.3353,0.7636000000000122 4.375,-0.2501 l16.00001,-17.0007 c0.5475,-0.5818000000000006 0.8143,-1.2644 0.8125,-2.0626 z"
    />
</svg>
