<svg xmlns="http://www.w3.org/2000/svg" version="1.1" viewbox="0 0 53 24" width="32">
    <path d="m53.00679167132935,12.007040261179725 c0,-0.2924655668424062 -0.24727750677727364,-0.6807976559190231 -0.49816832188866356,-0.8692445704229239 l-14.134926492262737,-10.74331941508705 c-0.6599367544216624,-0.48805349453844055 -1.7290873035529812,-0.5446128468124145 -2.4984834473626534,-0.04929194946782122 c-0.6878537576876933,0.44280601271926123 -0.7049926774143062,1.306426245318292 -0.06890905869463143,1.7872755318575884 l11.346583273647411,8.610431483691626 l-45.385988549296165,0 c-0.9758582850524331,0 -1.7668989408879838,0.5658463019677835 -1.7668989408879838,1.2638961402005435 c0,0.698049838232761 0.7910406558355508,1.2639593350075538 1.7668989408879838,1.2639593350075538 l45.385988549296165,0 l-11.346583273647411,8.610418844730223 c-0.6359952737726307,0.4807860917322875 -0.5908510058329425,1.3231728691759495 0.06890905869463143,1.7872123370505792 c0.696599907445089,0.4898861439417314 1.8486180169040538,0.44628172710481234 2.4984834473626534,-0.04929194946782122 l14.134926492262737,-10.743243581318639 c0.4153095960557208,-0.2913912551232357 0.4911979055668598,-0.572039393054766 0.49816832188866356,-0.868802206773854 z"
    />
</svg>
