<svg xmlns="http://www.w3.org/2000/svg" version="1.1" viewbox="0 0 80 40" width="30">
    <path d="m80.0000338881836,19.994715475463863 c-0.028000000000000008,-0.7150000000000002 -0.3223000000000002,-1.5413999999999999 -0.8125,-2.0626 l-16.00001,-17.00076 c-1.0842,-0.9742999999999998 -3.1632000000000002,-1.3765 -4.375,-0.25 c-1.1936,1.1095 -1.1581000000000001,3.2613 0.031000000000000014,4.3752 l11.25,11.9381 l-67.09352,0 c-1.6568,0 -3.0000003,1.3431600000000001 -3.0000003,3.00006 c0,1.6569000000000005 1.3432003000000001,3.0001 3.0000003,3.0001 l67.09352,0 l-11.25,11.9381 c-1.0237,1.0255 -1.2129,3.253 -0.031000000000000014,4.3752 c1.1816,1.1221 3.3353,0.7636000000000004 4.375,-0.2501 l16.00001,-17.0007 c0.5475,-0.5818000000000002 0.8143,-1.2644 0.8125,-2.0626 z"
    />
</svg>
