<?xml version="1.0" standalone="no"?>
<!DOCTYPE svg PUBLIC "-//W3C//DTD SVG 20010904//EN"
 "http://www.w3.org/TR/2001/REC-SVG-20010904/DTD/svg10.dtd">
<svg version="1.0" xmlns="http://www.w3.org/2000/svg"
 width="602.000000pt" height="602.000000pt" viewBox="0 0 602.000000 602.000000"
 preserveAspectRatio="xMidYMid meet">
<metadata>
Created by potrace 1.11, written by Peter Selinger 2001-2013
</metadata>
<g transform="translate(0.000000,602.000000) scale(0.100000,-0.100000)"
fill="#000000" stroke="none">
<path d="M635 5749 c-4 -6 -13 -8 -19 -6 -7 3 -19 1 -26 -3 -7 -5 -23 -5 -35
0 -12 5 -29 4 -39 -2 -14 -8 -17 -8 -11 2 6 9 3 9 -13 1 -12 -6 -23 -7 -26 -3
-6 10 -59 7 -77 -3 -8 -6 -10 -4 -4 4 6 10 3 11 -13 2 -12 -6 -23 -7 -26 -2
-3 4 -17 6 -30 4 l-25 -5 1 -268 0 -268 27 0 c14 0 51 -3 81 -7 30 -4 64 -8
75 -9 11 -1 19 -7 17 -14 -1 -7 3 -12 8 -12 7 0 7 -7 -1 -21 -8 -15 -8 -19 0
-15 12 8 15 -6 4 -18 -11 -10 -12 -37 -2 -30 5 3 9 1 9 -5 0 -5 9 -8 20 -6 11
2 20 0 20 -5 0 -5 12 -7 26 -4 16 3 23 1 19 -6 -3 -5 -1 -10 4 -10 6 0 11 5
11 12 0 9 3 9 11 1 6 -6 18 -9 25 -6 8 3 14 1 14 -5 0 -6 9 -8 21 -5 12 4 25
0 30 -8 7 -11 9 -11 9 -1 0 7 5 10 11 7 5 -4 25 -9 42 -12 18 -3 37 -6 42 -6
6 -1 13 -5 16 -10 3 -4 23 -9 45 -11 21 -3 40 -5 42 -6 1 -2 6 -3 11 -4 5 0
12 -4 16 -8 4 -4 14 -4 23 -1 11 5 13 3 7 -7 -6 -10 -4 -12 7 -7 9 3 26 -2 39
-10 15 -11 20 -12 14 -3 -5 9 -4 11 3 6 7 -4 12 -20 12 -36 0 -16 5 -32 11
-36 8 -4 7 -9 -2 -15 -11 -6 -11 -11 -1 -21 13 -13 17 -32 4 -24 -5 3 -9 -1
-9 -9 0 -8 4 -12 9 -9 11 7 10 -3 -3 -28 -7 -13 -7 -18 -1 -14 12 7 10 -33 -3
-53 -5 -10 -4 -12 3 -7 15 9 15 1 2 -24 -7 -13 -7 -21 0 -25 8 -5 7 -12 -2
-23 -11 -13 -11 -14 1 -7 11 6 13 4 7 -11 -13 -32 -15 -55 -5 -49 12 8 12 -2
-2 -27 -8 -15 -8 -19 0 -14 14 9 10 -36 -4 -46 -6 -5 -6 -8 2 -8 13 0 12 -18
-1 -39 -6 -10 -5 -12 2 -7 15 9 15 1 2 -24 -7 -13 -7 -21 1 -26 8 -4 7 -9 -2
-15 -12 -7 -12 -9 0 -9 11 0 11 -3 0 -17 -10 -11 -10 -14 -1 -9 15 9 15 1 1
-26 -7 -13 -7 -18 -1 -14 12 7 10 -33 -3 -53 -5 -10 -4 -12 3 -7 15 9 15 1 2
-24 -7 -13 -7 -21 0 -25 8 -5 7 -12 -2 -23 -10 -12 -10 -14 0 -8 14 8 16 -3 2
-24 -5 -9 -5 -19 2 -27 8 -10 7 -13 -3 -13 -9 0 -10 -3 -4 -8 13 -8 13 -22 1
-41 -6 -10 -5 -12 2 -7 14 9 15 -3 2 -24 -5 -9 -5 -19 2 -27 8 -10 7 -13 -3
-13 -12 0 -12 -2 -1 -9 8 -4 14 -12 14 -16 0 -4 -6 -12 -14 -16 -8 -6 -9 -9
-1 -9 13 0 12 -18 -1 -39 -6 -10 -5 -12 2 -7 14 9 15 -3 2 -24 -5 -9 -5 -19 2
-27 8 -10 7 -13 -3 -13 -9 0 -10 -3 -4 -8 13 -8 13 -22 1 -41 -6 -10 -5 -12 2
-7 15 9 15 1 2 -24 -7 -13 -7 -21 0 -25 8 -5 7 -12 -2 -23 -11 -13 -11 -14 1
-7 11 6 13 4 7 -11 -13 -32 -15 -55 -5 -49 12 8 12 -2 -2 -27 -8 -15 -8 -19 0
-14 14 9 10 -36 -4 -46 -6 -5 -6 -8 2 -8 13 0 12 -18 -1 -39 -6 -10 -5 -12 2
-7 15 9 15 1 2 -24 -7 -13 -7 -21 1 -26 8 -4 7 -9 -2 -15 -12 -7 -12 -9 0 -9
11 0 11 -3 0 -17 -10 -11 -10 -14 -2 -9 16 9 16 1 2 -26 -7 -13 -7 -18 -1 -14
12 7 10 -33 -3 -53 -5 -10 -4 -12 3 -7 15 9 15 1 2 -24 -7 -13 -7 -21 0 -25 8
-5 7 -12 -2 -23 -10 -12 -10 -14 0 -8 14 8 16 -3 2 -24 -5 -9 -5 -19 2 -27 8
-10 7 -13 -3 -13 -9 0 -10 -3 -4 -8 13 -8 13 -22 1 -41 -6 -10 -5 -12 2 -7 14
9 15 -3 2 -24 -5 -9 -5 -19 2 -27 8 -10 7 -13 -3 -13 -12 0 -12 -2 -1 -9 17
-11 17 -21 0 -32 -8 -6 -9 -9 -1 -9 13 0 12 -18 -1 -39 -6 -10 -5 -12 2 -7 14
9 15 -3 2 -24 -5 -9 -5 -19 2 -27 8 -10 7 -13 -3 -13 -9 0 -10 -3 -4 -8 13 -8
13 -22 1 -41 -6 -10 -5 -12 2 -7 15 9 15 1 2 -24 -7 -13 -7 -21 0 -25 8 -5 7
-12 -2 -23 -11 -13 -11 -14 1 -7 11 6 13 4 7 -11 -13 -32 -15 -55 -5 -49 12 8
12 -2 -2 -27 -8 -15 -8 -19 0 -14 14 9 10 -36 -4 -46 -6 -5 -6 -8 2 -8 13 0
12 -18 -1 -39 -6 -10 -5 -12 2 -7 15 9 15 1 2 -24 -7 -13 -7 -21 1 -26 8 -4 7
-9 -2 -15 -12 -7 -12 -9 0 -9 11 0 11 -3 0 -17 -10 -11 -10 -14 -1 -9 15 9 15
1 1 -26 -7 -13 -7 -18 -1 -14 12 7 10 -33 -3 -53 -5 -10 -4 -12 3 -7 15 9 15
1 2 -24 -7 -13 -7 -21 0 -25 8 -5 7 -12 -2 -23 -11 -13 -11 -14 1 -7 11 6 13
4 7 -11 -13 -32 -15 -55 -5 -49 12 8 12 -2 -2 -27 -8 -15 -8 -19 0 -14 14 9
10 -36 -4 -46 -6 -5 -6 -8 2 -8 13 0 12 -18 -1 -39 -6 -10 -5 -12 2 -7 15 9
15 1 2 -24 -7 -13 -7 -21 1 -26 8 -4 7 -9 -2 -15 -12 -7 -12 -9 0 -9 11 0 11
-3 0 -17 -10 -11 -10 -14 -2 -9 16 9 16 1 2 -26 -8 -15 -8 -19 0 -14 14 9 14
0 0 -26 -8 -15 -8 -19 0 -14 14 9 14 0 0 -26 -8 -15 -8 -19 0 -14 14 9 10 -36
-4 -46 -6 -5 -6 -8 2 -8 13 0 12 -18 -1 -39 -6 -10 -5 -12 2 -7 15 9 15 1 2
-24 -7 -13 -7 -21 1 -26 8 -4 7 -9 -2 -15 -12 -7 -12 -9 0 -9 11 0 11 -3 0
-17 -10 -11 -10 -14 -1 -9 15 9 15 1 1 -26 -8 -15 -8 -19 0 -14 14 9 14 0 0
-26 -8 -15 -8 -19 0 -14 6 4 11 4 11 1 0 -4 -5 -16 -11 -27 -8 -15 -8 -19 0
-14 14 9 10 -36 -4 -46 -6 -5 -6 -8 2 -8 13 0 12 -18 -1 -39 -6 -10 -5 -12 2
-7 15 9 15 1 2 -24 -7 -13 -7 -21 1 -26 8 -4 7 -9 -2 -15 -12 -7 -12 -9 0 -9
11 0 11 -3 0 -17 -10 -11 -10 -14 -1 -9 15 9 15 1 1 -26 -8 -15 -8 -19 0 -14
14 9 14 0 0 -26 -8 -15 -8 -19 0 -14 14 9 14 0 0 -26 -8 -15 -8 -19 0 -14 14
9 10 -36 -4 -46 -6 -5 -6 -8 2 -8 12 0 12 -18 -1 -39 -5 -8 -3 -17 5 -22 9 -6
10 -12 4 -16 -5 -5 -11 -24 -13 -43 -1 -19 -7 -36 -12 -38 -6 -2 -10 -12 -10
-23 0 -10 -11 -26 -25 -35 -14 -9 -22 -20 -19 -25 3 -5 -2 -6 -11 -3 -9 4 -21
0 -28 -9 -7 -9 -24 -19 -39 -22 -16 -3 -38 -7 -50 -10 -56 -12 -76 -16 -123
-21 -74 -10 -74 -10 -81 -17 -4 -4 -13 -2 -21 4 -9 9 -13 8 -13 0 0 -6 -5 -11
-11 -11 -5 0 -7 6 -3 13 6 9 5 9 -8 0 -8 -7 -18 -10 -21 -6 -4 3 -7 2 -7 -4 0
-5 -20 -8 -45 -7 -24 2 -47 -2 -51 -7 -4 -6 -12 -5 -22 3 -13 11 -14 11 -8 0
10 -16 -25 -13 -36 3 -5 6 -8 5 -8 -4 0 -7 -6 -11 -15 -8 -8 4 -17 2 -19 -2
-3 -5 -18 -6 -32 -3 -19 3 -25 1 -20 -6 4 -8 2 -10 -8 -6 -13 5 -15 -29 -15
-256 0 -225 2 -262 15 -267 9 -3 57 -6 107 -7 89 -1 92 -2 95 -25 3 -17 0 -21
-10 -15 -10 6 -11 5 -1 -7 10 -12 10 -18 1 -27 -9 -9 -9 -12 3 -12 12 0 12 -2
-1 -10 -10 -6 -11 -10 -2 -10 6 0 12 -10 12 -22 0 -17 3 -19 9 -10 11 17 21
17 32 0 7 -10 9 -10 9 0 0 9 5 10 16 4 9 -5 32 -6 50 -2 20 5 34 4 34 -2 0 -5
6 -6 13 -1 17 11 31 10 39 -2 5 -6 8 -5 8 3 0 7 5 10 11 7 10 -6 130 -10 154
-5 6 1 12 2 15 0 16 -6 157 -4 153 3 -6 10 9 9 26 -2 8 -6 24 -6 38 0 15 5 23
5 23 -2 0 -6 5 -7 12 -2 18 11 32 10 40 -2 5 -6 8 -5 8 3 0 7 5 10 11 7 10 -6
130 -10 154 -5 6 1 12 2 15 0 19 -7 157 -3 152 4 -3 6 3 6 14 2 17 -7 115 -11
139 -6 6 1 12 2 15 0 16 -6 157 -4 153 3 -6 10 9 9 26 -2 9 -6 22 -6 32 0 12
6 20 5 24 -1 4 -6 12 -7 18 -3 15 9 47 11 47 3 0 -3 23 -4 50 0 28 4 53 4 55
1 7 -7 134 -3 146 5 5 3 9 0 9 -6 0 -7 5 -8 12 -3 18 11 32 10 40 -2 5 -6 8
-5 8 3 0 7 5 10 11 7 10 -6 130 -10 154 -5 6 1 12 2 15 0 16 -6 157 -4 153 3
-6 10 9 9 26 -2 8 -6 24 -6 38 0 15 5 23 5 23 -2 0 -6 5 -7 13 -2 17 11 31 10
39 -2 5 -6 8 -5 8 3 0 9 5 10 17 4 9 -6 29 -6 45 -2 16 5 30 5 34 -1 3 -5 11
-6 17 -2 15 9 47 11 47 3 0 -3 23 -4 50 0 28 4 52 4 55 2 4 -4 199 -6 220 -2
6 1 12 2 15 0 19 -7 157 -3 152 4 -3 5 2 6 12 3 10 -4 24 -1 32 8 9 8 12 15 7
15 -12 0 -10 161 1 179 6 9 5 12 -1 8 -7 -4 -11 8 -11 33 -1 24 4 40 11 40 8
0 7 4 -2 9 -13 8 -13 12 0 27 8 10 9 15 3 11 -16 -9 -16 65 -1 75 9 6 9 8 0 8
-7 0 -13 7 -13 15 0 9 -6 12 -16 8 -9 -3 -20 0 -25 8 -6 10 -9 10 -9 2 0 -7
-5 -13 -11 -13 -5 0 -8 4 -5 9 4 5 -3 7 -13 4 -23 -6 -32 20 -19 55 4 12 4 22
0 22 -4 0 -5 26 -2 58 4 43 1 60 -10 70 -8 8 -9 11 -2 7 6 -3 12 -2 12 3 0 5
-17 10 -37 11 -55 1 -88 7 -103 16 -9 6 -11 4 -5 -5 6 -10 4 -12 -11 -6 -18 8
-44 13 -104 20 -14 2 -25 5 -25 6 0 1 -24 4 -52 6 -29 2 -66 10 -83 19 -21 11
-30 12 -30 4 0 -7 -9 -4 -22 7 -12 10 -18 13 -14 7 4 -7 2 -13 -3 -13 -6 0
-11 4 -11 8 0 4 -12 9 -26 10 -15 1 -32 6 -39 12 -6 5 -15 7 -18 3 -4 -3 -10
2 -13 11 -4 10 -10 13 -13 8 -3 -5 -17 2 -31 16 -14 13 -20 22 -13 18 14 -8
13 50 -1 73 -6 9 -5 12 1 8 7 -4 10 9 10 38 -1 25 -6 45 -12 45 -5 0 -4 4 4 9
13 8 13 12 0 27 -10 12 -10 15 -1 10 10 -6 12 2 11 33 -2 23 -8 41 -13 41 -6
0 -5 4 3 9 13 8 13 12 0 27 -10 12 -10 15 -1 10 10 -6 12 2 11 33 -2 23 -8 41
-13 41 -6 0 -5 4 3 9 13 8 13 12 0 27 -10 12 -10 15 -1 10 10 -6 12 3 10 41
-1 26 -7 54 -13 62 -7 11 -7 13 1 8 8 -4 11 14 11 58 -1 39 -5 65 -11 65 -6 0
-5 4 3 9 13 8 13 12 0 27 -9 11 -9 15 -1 10 9 -5 12 7 10 53 -1 34 -7 61 -13
61 -5 0 -4 4 4 9 13 8 13 12 0 27 -9 11 -9 15 -1 10 8 -5 12 1 12 21 0 16 -6
35 -12 42 -9 10 -9 12 -1 7 14 -8 13 50 -1 73 -6 9 -5 12 1 8 7 -4 10 9 10 38
-1 25 -6 45 -12 45 -5 0 -4 4 4 9 13 8 13 12 0 27 -10 12 -10 15 -1 10 10 -6
12 2 11 33 -2 23 -8 41 -13 41 -6 0 -5 4 3 9 13 8 13 12 0 27 -10 12 -10 15
-1 10 10 -6 12 2 11 33 -2 23 -8 41 -13 41 -6 0 -5 4 3 9 13 8 13 12 0 27 -10
12 -10 15 -1 10 10 -6 12 3 10 41 -1 26 -7 54 -13 62 -7 11 -7 13 2 8 14 -9
13 49 -1 72 -6 10 -5 12 2 7 8 -5 11 1 10 18 -1 15 -7 26 -13 26 -5 0 -4 4 4
9 8 5 11 16 8 24 -7 19 17 26 55 16 15 -4 30 -3 34 2 3 5 10 7 15 3 5 -3 17 0
26 8 10 8 14 8 10 1 -4 -6 -3 -14 2 -17 5 -4 12 -2 15 2 6 10 68 8 85 -2 6 -4
11 -2 11 4 0 6 4 8 10 5 17 -11 51 -14 45 -5 -3 5 4 8 15 7 11 -1 20 -5 20
-10 0 -5 6 -5 13 2 10 8 17 7 27 -2 9 -9 11 -9 6 0 -4 8 1 11 14 10 11 -1 20
-5 20 -11 0 -5 10 -1 22 10 12 10 18 13 14 7 -7 -13 31 -18 90 -14 11 1 32 -3
47 -8 18 -7 28 -7 33 0 4 8 9 8 13 1 3 -6 24 -11 46 -13 22 -1 46 -8 54 -13
12 -9 13 -8 7 3 -6 8 0 7 18 -4 14 -10 26 -13 26 -9 0 5 5 2 10 -6 7 -11 10
-12 10 -2 0 10 4 10 15 -2 9 -8 23 -12 33 -9 9 3 14 3 11 -1 -4 -4 4 -18 17
-31 13 -13 31 -42 41 -64 10 -23 21 -41 25 -41 5 0 8 -12 8 -26 0 -14 4 -23
10 -19 6 4 10 -5 10 -19 0 -14 5 -26 10 -26 6 0 10 -9 10 -20 0 -12 7 -32 16
-45 9 -13 12 -30 8 -36 -4 -8 -3 -9 4 -5 11 6 18 -20 13 -47 -1 -5 3 -6 9 -2
6 4 10 -4 10 -19 0 -14 5 -28 11 -31 6 -4 8 -13 5 -20 -2 -7 2 -22 10 -33 9
-13 10 -23 4 -27 -9 -6 -7 -13 19 -64 8 -14 8 -21 2 -16 -6 3 -11 1 -11 -4 0
-6 5 -11 11 -11 8 0 7 -6 -2 -17 -11 -13 -11 -15 -1 -9 9 5 13 3 11 -5 -1 -8
-1 -37 0 -66 l1 -51 55 1 c30 1 55 -1 55 -5 0 -7 51 -1 58 7 11 11 35 -30 34
-58 0 -17 5 -38 11 -46 9 -11 9 -13 0 -8 -8 5 -11 0 -10 -13 1 -19 7 -21 50
-17 26 2 50 0 53 -5 3 -4 13 -4 22 0 9 5 37 7 62 6 71 -4 90 -4 171 -2 l77 1
0 1187 0 1187 -46 -2 c-36 -1 -46 2 -50 17 -2 10 -9 18 -16 18 -6 0 -4 5 4 10
12 8 13 11 1 19 -11 7 -11 9 0 14 12 4 11 7 -1 16 -10 7 -11 11 -2 11 16 0 16
32 0 49 -10 11 -10 13 0 7 6 -4 12 -3 12 3 0 5 -6 12 -12 14 -10 4 -10 6 0 6
17 1 15 30 -5 49 -19 19 -22 19 -34 0 -6 -9 -9 -9 -9 -1 0 14 -52 13 -62 -2
-5 -6 -8 -6 -8 1 0 13 -38 12 -59 0 -10 -6 -12 -5 -7 2 4 7 1 12 -9 12 -10 0
-13 -5 -9 -12 6 -10 5 -10 -7 -1 -18 14 -59 13 -59 -2 0 -6 -3 -7 -8 0 -11 15
-82 17 -82 2 0 -9 -2 -9 -8 -1 -8 14 -54 13 -64 -1 -5 -7 -8 -7 -8 0 0 6 -18
11 -40 12 -22 0 -38 -3 -35 -7 3 -5 -1 -11 -7 -13 -10 -4 -10 -8 1 -15 10 -8
11 -10 1 -14 -7 -2 -13 -18 -12 -36 0 -17 -4 -34 -9 -38 -6 -3 -5 -12 3 -22
10 -12 10 -14 1 -8 -10 5 -13 -3 -13 -33 0 -22 -5 -43 -11 -47 -8 -4 -7 -9 2
-15 11 -7 11 -9 1 -9 -7 0 -11 -4 -7 -9 3 -5 1 -12 -4 -16 -6 -3 -7 -13 -4
-22 4 -11 3 -14 -5 -9 -8 5 -12 -3 -12 -24 0 -17 -4 -29 -9 -26 -4 3 -8 -2 -8
-12 0 -36 -3 -43 -15 -36 -8 5 -7 0 2 -11 9 -11 10 -16 3 -11 -9 5 -13 1 -13
-13 0 -11 -4 -23 -10 -26 -5 -3 -10 -15 -10 -26 0 -11 -11 -37 -24 -58 -14
-21 -22 -41 -19 -45 3 -3 -2 -8 -11 -12 -9 -3 -13 -10 -10 -15 3 -5 0 -9 -5
-9 -6 0 -11 -6 -11 -12 0 -7 -14 -28 -31 -46 -16 -17 -27 -37 -24 -42 4 -6 -1
-7 -11 -3 -12 4 -15 3 -10 -5 4 -7 1 -12 -8 -12 -9 0 -16 -5 -16 -11 0 -5 -4
-8 -9 -5 -5 3 -11 -1 -15 -9 -3 -8 -13 -15 -21 -15 -9 0 -13 -4 -10 -10 6 -9
-8 -14 -27 -11 -5 0 -8 -4 -8 -9 0 -6 -7 -10 -15 -10 -8 0 -15 -4 -15 -10 0
-5 -8 -10 -18 -10 -10 0 -22 -3 -26 -7 -3 -4 -14 -8 -24 -9 -20 -3 -56 -12
-59 -14 -2 -2 -12 -4 -23 -5 -11 -1 -23 -4 -27 -5 -5 -1 -11 -2 -15 -1 -4 0
-19 -4 -33 -9 -17 -7 -24 -7 -20 0 3 6 1 10 -4 10 -6 0 -11 -5 -11 -11 0 -6
-13 -8 -30 -5 -16 2 -32 0 -36 -5 -3 -5 -10 -6 -16 -3 -6 4 -91 6 -190 6 -99
0 -177 2 -174 5 3 4 0 13 -7 21 -9 13 -9 14 1 8 7 -4 12 -2 12 6 0 8 -6 20
-12 27 -10 11 -10 13 0 7 14 -9 17 20 2 29 -5 3 -10 12 -10 18 0 7 4 6 10 -3
7 -11 9 -4 7 25 -1 22 -6 46 -11 54 -6 9 -5 12 1 8 7 -4 10 9 10 38 -1 25 -6
45 -12 45 -5 0 -4 4 4 9 13 8 13 12 0 27 -10 12 -10 15 -1 10 10 -6 12 2 11
33 -2 23 -8 41 -13 41 -6 0 -5 4 3 9 13 8 13 12 0 27 -10 12 -10 15 -1 10 10
-6 12 2 11 33 -2 23 -8 41 -13 41 -6 0 -5 4 3 9 13 8 13 12 0 27 -10 12 -10
15 -1 10 10 -6 12 3 10 41 -1 26 -7 54 -13 62 -7 11 -7 13 1 8 8 -4 11 14 11
58 -1 39 -5 65 -11 65 -6 0 -5 4 3 9 13 8 13 12 0 27 -9 11 -9 15 -1 10 9 -5
12 7 10 53 -1 34 -7 61 -13 61 -5 0 -4 4 4 9 13 8 13 12 0 27 -9 11 -9 15 -1
10 8 -5 12 1 12 21 0 16 -6 35 -12 42 -9 10 -9 12 -1 7 14 -8 13 50 -1 73 -6
9 -5 12 1 8 7 -4 10 9 10 38 -1 25 -6 45 -12 45 -5 0 -4 4 4 9 13 8 13 12 0
27 -10 12 -10 15 -1 10 10 -6 12 2 11 33 -2 23 -8 41 -13 41 -6 0 -5 4 3 9 13
8 13 12 0 27 -10 12 -10 15 -1 10 10 -6 12 2 11 33 -2 23 -8 41 -13 41 -6 0
-5 4 3 9 13 8 13 12 0 27 -9 12 -10 15 -1 10 10 -6 12 5 11 46 -2 76 -1 85 17
92 8 3 13 2 10 -2 -3 -5 1 -9 9 -9 8 0 12 4 9 9 -9 14 8 9 27 -8 13 -12 19
-12 25 -3 4 7 3 10 -4 5 -6 -3 -13 -3 -15 1 -3 5 10 8 29 9 19 0 30 -3 23 -7
-7 -4 -1 -6 14 -6 14 1 23 5 21 9 -5 8 23 4 32 -5 10 -9 26 -9 20 1 -2 4 9 8
25 8 19 1 27 -2 22 -10 -3 -6 0 -6 8 2 7 6 18 12 23 12 6 0 4 -5 -4 -10 -12
-8 -10 -10 8 -10 15 0 21 4 16 12 -4 7 -3 8 4 4 19 -12 53 -16 47 -5 -4 5 -2
9 4 9 5 0 13 -4 16 -10 3 -5 13 -10 21 -10 8 0 13 3 11 8 -3 4 6 8 20 9 17 1
22 -2 13 -7 -9 -5 -4 -8 13 -7 14 1 23 5 21 9 -5 8 23 4 32 -5 10 -9 26 -9 20
1 -2 4 9 8 25 8 19 1 27 -2 22 -10 -3 -6 0 -6 8 2 7 6 18 12 23 12 6 0 4 -5
-4 -10 -12 -8 -10 -10 8 -10 15 0 21 4 16 12 -4 7 -3 8 4 4 19 -12 53 -16 47
-5 -4 5 -2 9 4 9 5 0 13 -4 16 -10 3 -5 13 -10 21 -10 8 0 13 3 11 8 -3 4 6 8
20 9 19 1 22 -1 12 -8 -8 -5 -9 -9 -4 -9 6 0 17 5 25 10 10 6 22 4 37 -5 20
-13 22 -13 17 -1 -4 12 1 14 22 10 15 -3 31 -7 36 -10 4 -3 8 1 8 8 0 9 2 10
8 1 4 -7 44 -12 102 -14 52 -1 103 -7 114 -12 13 -6 16 -6 12 2 -9 14 0 14 26
0 15 -8 19 -8 14 0 -4 6 -2 11 3 11 6 0 11 -5 11 -11 0 -5 4 -8 9 -5 5 4 21 2
35 -4 15 -5 28 -6 31 0 3 6 15 6 29 0 13 -5 27 -6 30 -3 3 3 12 0 20 -6 10 -8
16 -9 21 -2 4 7 15 5 30 -5 14 -9 32 -13 41 -10 14 5 15 4 5 -8 -10 -12 -8
-13 10 -9 15 4 26 0 35 -12 8 -11 14 -16 14 -12 0 5 6 2 14 -5 10 -9 11 -15 2
-20 -6 -5 -2 -8 12 -8 15 0 22 -6 22 -21 0 -11 4 -18 8 -15 5 3 15 -6 22 -19
7 -13 17 -22 22 -19 4 3 8 -1 8 -9 0 -8 7 -20 15 -27 8 -7 12 -17 8 -23 -3 -6
-1 -7 5 -3 7 4 12 1 12 -9 0 -9 5 -13 10 -10 6 3 10 0 10 -8 0 -8 7 -18 16
-21 8 -3 12 -10 9 -16 -3 -5 -1 -10 4 -10 6 0 11 -7 11 -15 0 -8 5 -15 10 -15
6 0 10 -7 10 -16 0 -8 5 -12 10 -9 6 3 10 -3 10 -14 0 -12 5 -21 10 -21 6 0
10 -7 10 -16 0 -8 4 -12 10 -9 6 3 10 -1 10 -9 0 -9 5 -16 10 -16 6 0 10 -9
10 -20 0 -11 5 -20 10 -20 6 0 10 -9 10 -21 0 -11 5 -17 10 -14 6 3 10 -3 10
-14 0 -12 5 -21 10 -21 6 0 10 -9 10 -20 0 -11 5 -20 10 -20 6 0 10 -6 10 -14
0 -8 5 -16 10 -18 6 -2 12 -13 13 -25 0 -12 3 -20 6 -17 2 2 11 -15 19 -38 8
-24 19 -46 26 -50 7 -5 6 -8 -4 -8 -12 0 -12 -2 -2 -9 7 -4 14 -17 15 -29 0
-11 5 -18 9 -16 4 3 8 -5 8 -18 1 -51 20 -64 90 -63 73 1 88 -8 92 -53 1 -17
5 -29 9 -26 4 2 9 -8 11 -23 3 -24 7 -28 36 -28 17 0 32 -2 32 -5 0 -3 11 -5
25 -5 14 0 25 3 25 7 0 4 10 4 23 -1 12 -5 32 -5 45 0 13 5 21 5 18 1 -5 -9
147 -7 163 2 6 4 11 3 11 -3 0 -7 8 -7 24 -1 13 5 26 7 28 5 2 -3 4 7 4 20 0
14 -4 25 -8 25 -4 0 -8 5 -8 11 0 5 5 7 10 4 14 -9 12 28 -2 44 -10 11 -10 13
0 7 8 -5 12 -1 12 11 0 11 -6 25 -12 32 -10 11 -10 13 0 7 6 -4 12 -3 12 1 0
5 -6 15 -12 22 -10 11 -10 13 0 7 8 -5 12 -1 12 11 0 11 -6 25 -12 32 -10 11
-10 13 0 7 7 -5 12 -1 12 9 0 10 -5 13 -12 9 -7 -5 -8 -3 -2 7 12 19 16 51 6
45 -5 -3 -9 1 -9 9 0 8 4 12 8 9 12 -7 8 79 -5 95 -8 12 -8 13 2 7 8 -5 12 -1
12 11 0 11 -6 25 -12 32 -10 11 -10 13 0 7 6 -4 12 -3 12 1 0 5 -6 15 -12 22
-10 11 -10 13 0 7 8 -5 12 -1 12 11 0 11 -6 25 -12 32 -10 11 -10 13 0 7 7 -5
12 -1 12 9 0 10 -5 13 -12 9 -7 -5 -8 -3 -2 7 12 19 16 51 6 45 -5 -3 -9 1 -9
9 0 8 4 12 8 9 12 -7 8 79 -5 95 -8 12 -8 13 2 7 16 -10 16 25 0 43 -10 11
-10 13 0 7 16 -9 16 6 0 23 -10 11 -10 13 0 7 16 -10 16 26 0 43 -10 11 -10
13 0 7 7 -5 12 -1 12 9 0 10 -5 13 -12 9 -7 -5 -8 -3 -2 7 12 19 16 51 6 45
-5 -3 -9 1 -9 9 0 8 4 12 8 9 12 -7 8 79 -5 95 -8 12 -8 13 2 7 16 -10 16 25
0 43 -10 11 -10 13 0 7 6 -4 12 -3 12 1 0 5 -6 15 -12 22 -10 11 -10 13 0 7 8
-5 12 -1 12 11 0 11 -6 25 -12 32 -10 11 -10 13 0 7 7 -5 12 -1 12 9 0 10 -5
13 -12 9 -7 -5 -8 -3 -2 7 12 19 16 51 6 45 -5 -3 -9 1 -9 9 0 8 4 12 8 9 12
-7 8 79 -5 95 -8 12 -8 13 2 7 8 -5 12 -1 12 11 0 11 -6 25 -12 32 -10 11 -10
13 0 7 6 -4 12 -3 12 1 0 5 -6 15 -12 22 -10 11 -10 12 -1 7 9 -5 12 6 10 41
-3 41 -6 48 -23 45 -10 -2 -23 -5 -29 -5 -5 -1 -9 4 -7 12 3 12 1 12 -14 0
-13 -11 -18 -11 -21 -1 -3 6 -9 10 -14 6 -5 -3 -9 0 -9 5 0 6 6 11 13 11 8 0
7 4 -3 10 -13 9 -13 10 0 10 12 0 13 2 1 9 -11 7 -10 10 4 18 16 9 16 10 0 17
-12 4 -14 10 -7 19 13 15 13 29 0 45 -8 8 -7 12 3 12 11 0 11 2 -1 10 -12 8
-13 13 -2 30 10 17 10 20 -3 20 -8 0 -15 4 -15 8 0 10 -54 7 -71 -3 -8 -6 -10
-4 -4 4 6 10 3 11 -13 2 -12 -6 -23 -7 -26 -3 -6 10 -59 7 -77 -3 -8 -6 -10
-4 -4 4 6 10 3 11 -13 2 -12 -6 -23 -7 -26 -3 -6 10 -59 7 -77 -3 -8 -6 -10
-4 -4 4 6 10 3 11 -13 2 -12 -6 -23 -7 -26 -3 -3 5 -20 7 -38 5 -18 -2 -54 -3
-80 -3 -72 1 -73 1 -143 1 -36 0 -71 0 -77 1 -7 0 -17 -1 -23 -2 -5 -1 -23 -2
-38 -1 -20 1 -26 5 -21 14 6 8 3 8 -9 -1 -9 -8 -20 -11 -25 -9 -4 3 -14 2 -22
-3 -7 -4 -23 -5 -35 0 -12 5 -29 4 -39 -2 -14 -8 -17 -8 -11 2 6 9 3 9 -13 1
-12 -6 -23 -7 -26 -3 -6 10 -59 7 -77 -3 -8 -6 -10 -4 -4 4 6 10 3 11 -13 2
-12 -6 -23 -7 -26 -3 -6 10 -59 7 -77 -3 -8 -6 -10 -4 -4 4 6 10 3 11 -13 2
-12 -6 -23 -7 -26 -3 -6 10 -59 7 -77 -3 -8 -6 -10 -4 -4 4 6 10 3 11 -13 2
-12 -6 -23 -7 -26 -3 -3 5 -20 7 -38 5 -18 -2 -54 -3 -80 -3 -72 1 -73 1 -143
1 -36 0 -71 0 -77 1 -7 0 -17 -1 -23 -2 -5 -1 -23 -2 -38 -1 -20 1 -26 5 -21
14 6 8 3 8 -9 -1 -9 -8 -20 -11 -25 -9 -4 3 -14 2 -22 -3 -7 -4 -23 -5 -35 0
-12 5 -29 4 -39 -2 -14 -8 -17 -8 -11 2 6 9 3 9 -13 1 -12 -6 -23 -7 -26 -3
-6 10 -59 7 -77 -3 -8 -6 -10 -4 -4 4 6 10 3 11 -13 2 -12 -6 -23 -7 -26 -3
-6 10 -59 7 -77 -3 -8 -6 -10 -4 -4 4 6 10 3 11 -13 2 -12 -6 -23 -7 -26 -3
-6 10 -59 7 -77 -3 -8 -6 -10 -4 -4 4 6 10 3 11 -13 2 -12 -6 -23 -7 -26 -3
-3 5 -20 7 -38 5 -18 -2 -54 -3 -80 -3 -72 1 -73 1 -143 1 -36 0 -71 0 -77 1
-7 0 -17 -1 -23 -2 -5 -1 -23 -2 -38 -1 -20 1 -26 5 -21 14 6 8 3 8 -9 -1 -9
-8 -20 -11 -25 -9 -4 3 -14 2 -22 -3 -7 -4 -23 -5 -35 0 -12 5 -29 4 -39 -2
-14 -8 -17 -8 -11 2 6 9 3 9 -13 1 -12 -6 -23 -7 -26 -3 -6 10 -59 7 -77 -3
-8 -6 -10 -4 -4 4 6 10 3 11 -13 2 -12 -6 -23 -7 -26 -3 -6 10 -59 7 -77 -3
-8 -6 -10 -4 -4 4 6 10 3 11 -13 2 -12 -6 -23 -7 -26 -3 -6 10 -59 7 -77 -3
-8 -6 -10 -4 -4 4 6 10 3 11 -13 2 -12 -6 -23 -7 -26 -3 -3 5 -20 7 -38 5 -18
-2 -54 -3 -80 -3 -72 1 -73 1 -143 1 -36 0 -71 0 -77 1 -7 0 -17 -1 -23 -2 -5
-1 -23 -2 -38 -1 -20 1 -26 5 -21 14 6 8 3 8 -9 -1 -9 -8 -20 -11 -25 -9 -4 3
-14 2 -22 -3 -7 -4 -23 -5 -35 0 -12 5 -29 4 -39 -2 -14 -8 -17 -8 -11 2 6 9
3 9 -13 1 -12 -6 -23 -7 -26 -3 -6 10 -59 7 -77 -3 -8 -6 -10 -4 -4 4 6 10 3
11 -13 2 -12 -6 -23 -7 -26 -3 -6 10 -59 7 -77 -3 -8 -6 -10 -4 -4 4 6 10 3
11 -13 2 -12 -6 -23 -7 -26 -3 -6 10 -59 7 -77 -3 -8 -6 -10 -4 -4 4 6 10 3
11 -13 2 -12 -6 -23 -7 -26 -3 -3 5 -20 7 -38 5 -18 -2 -54 -3 -80 -3 -72 1
-73 1 -143 1 -36 0 -71 0 -77 1 -7 0 -17 -1 -23 -2 -25 -6 -66 1 -60 10 3 6 4
10 1 10 -3 0 -8 -5 -11 -11z"/>
</g>
</svg>
